HIERARCHY
ROOT Hips
{
  OFFSET -33.5316 70.2386 -43.0745
  CHANNELS 6 Xposition Yposition Zposition Zrotation Xrotation Yrotation
  JOINT ToSpine
  {
    OFFSET -2.69724 7.43032 -0.144315
    CHANNELS 3 Zrotation Xrotation Yrotation
    JOINT Spine
    {
      OFFSET -0.0310711 10.7595 1.96963
      CHANNELS 3 Zrotation Xrotation Yrotation
      JOINT Spine1
      {
        OFFSET 13.1342 3.43533 0.764692
        CHANNELS 3 Zrotation Xrotation Yrotation
        JOINT Neck
        {
          OFFSET 29.8703 7.82586 -0.130764
          CHANNELS 3 Zrotation Xrotation Yrotation
          JOINT Head
          {
            OFFSET 9.52751 0.295786 -0.907742
            CHANNELS 3 Zrotation Xrotation Yrotation
            End Site
            {
              OFFSET 16.4037 0.713936 2.7358
            }
          }
        }
        JOINT LeftShoulder
        {
          OFFSET 27.5574 4.95586 2.47156
          CHANNELS 3 Zrotation Xrotation Yrotation
          JOINT LeftArm
          {
            OFFSET 1.20734 -0.998971 20.1238
            CHANNELS 3 Zrotation Xrotation Yrotation
            JOINT LeftForeArm
            {
              OFFSET 26.8049 -0.0536703 -0.155908
              CHANNELS 3 Zrotation Xrotation Yrotation
              JOINT LeftHand
              {
                OFFSET 26.6817 0 0.320147
                CHANNELS 3 Zrotation Xrotation Yrotation
                End Site
                {
                  OFFSET 18.6119 0 0.382219
                }
              }
            }
          }
        }
        JOINT RightShoulder
        {
          OFFSET 27.5927 4.71444 -2.65209
          CHANNELS 3 Zrotation Xrotation Yrotation
          JOINT RightArm
          {
            OFFSET 2.83739 -1.17114 -18.7564
            CHANNELS 3 Zrotation Xrotation Yrotation
            JOINT RightForeArm
            {
              OFFSET 28.839 -0.0548439 1.22491
              CHANNELS 3 Zrotation Xrotation Yrotation
              JOINT RightHand
              {
                OFFSET 26.5114 0 -0.101894
                CHANNELS 3 Zrotation Xrotation Yrotation
                End Site
                {
                  OFFSET 18.2168 0 0
                }
              }
            }
          }
        }
      }
    }
  }
  JOINT LeftUpLeg
  {
    OFFSET -4.76168 -1.9167 -10.2353
    CHANNELS 3 Zrotation Xrotation Yrotation
    JOINT LeftLeg
    {
      OFFSET 2.55951 -42.0585 -8.02213
      CHANNELS 3 Zrotation Xrotation Yrotation
      JOINT LeftFoot
      {
        OFFSET 3.16357 -42.5282 -3.95426
        CHANNELS 3 Zrotation Xrotation Yrotation
        JOINT LeftToeBase
        {
          OFFSET 0.346054 -6.02161 12.8035
          CHANNELS 3 Zrotation Xrotation Yrotation
          End Site
          {
            OFFSET 0.134235 -1.35082 5.13018
          }
        }
      }
    }
  }
  JOINT RightUpLeg
  {
    OFFSET -4.94151 -1.41743 10.6446
    CHANNELS 3 Zrotation Xrotation Yrotation
    JOINT RightLeg
    {
      OFFSET -2.56294 -42.0364 -7.94377
      CHANNELS 3 Zrotation Xrotation Yrotation
      JOINT RightFoot
      {
        OFFSET -3.0952 -42.555 -4.02241
        CHANNELS 3 Zrotation Xrotation Yrotation
        JOINT RightToeBase
        {
          OFFSET -0.0828122 -6.13587 12.8035
          CHANNELS 3 Zrotation Xrotation Yrotation
          End Site
          {
            OFFSET -0.131328 -1.35082 5.13018
          }
        }
      }
    }
  }
}
MOTION
Frames:	15
Frame Time:	0.0333333
-43.7214 85.8224 -63.4156 62.5652 -31.8024 -17.2726 -70.1915 0 88.8779 146.389 63.8446 -61.9493 -5.76336 25.3671 5.43782 -137.91 29.3673 170.344 -160.654 69.7048 -164.091 -0.815921 -18.3836 -33.2885 -65.3227 30.6897 -103.402 14.926 9.05258 -58.9615 -0.0936038 -0.00331384 1.20637 -2.73109 9.34949 43.2217 -79.6245 -8.54929 109.735 2.20907 -4.43441 27.5506 0.668215 0.00421681 0.390861 -10.8202 4.59645 106.375 -4.8672 55.88 -6.0221 6.08675 -3.60775 -0.964238 -3.13162 4.07239 5.25444 -13.8057 -3.54685 83.2207 58.2474 86.6047 -64.7456 -13.7405 2.02829 2.01169 3.9364 -41.2495 -6.74663 
-42.8318 84.931 -62.5584 61.9527 -31.0968 -16.0308 -70.1915 0 88.8779 151.921 60.5255 -64.9426 -7.20199 25.8106 5.30447 -138.987 30.0704 170.965 -161.22 70.2828 -163.878 -0.982907 -18.9987 -33.8541 -63.564 24.5321 -108.117 10.9742 6.00193 -61.1954 -0.456583 0.00428197 3.26284 -2.88204 10.1812 41.9923 -80.5422 -6.87469 111.774 0.992547 -2.70303 22.4732 0.693025 0.0218667 1.95601 -8.34488 5.87868 105.459 -6.16034 60.3018 -6.42287 7.01612 -4.90293 -1.07744 -2.61188 2.56933 6.29647 -8.01808 -4.74909 82.731 29.325 84.1785 -34.451 -10.0066 -11.1101 1.34128 2.1557 -22.547 -16.8355 
-42.0731 83.7381 -61.711 60.4644 -30.4629 -16.279 -70.1915 0 88.8779 155.13 57.9979 -66.9074 -8.37577 26.0195 5.23671 -140.688 31.0046 172.208 -164.591 71.0384 -161.631 -1.14296 -19.5742 -34.3447 -64.6474 19.7357 -111.573 8.97836 4.68003 -62.2287 -0.539508 0.00759267 4.70934 -3.03037 10.7643 41.509 -80.5514 -4.00874 114.71 -0.0806953 -0.456708 18.8477 -0.0214315 0.0149116 3.49252 -5.36785 7.24431 105.614 -7.70353 64.3524 -5.93557 8.39097 -6.89388 -1.20703 -2.58741 2.14285 7.1541 -3.60053 -5.48354 83.5065 12.8408 78.0545 -16.1773 -6.44169 -11.9246 1.24261 2.09299 -20.9317 -21.1997 
-41.4499 82.1809 -60.6531 59.7471 -29.5599 -15.9438 -70.1915 0 88.8779 157.25 54.9369 -67.5086 -9.16021 26.2021 3.89388 -141.574 31.1625 172.407 -165.77 71.1672 -160.479 -1.04243 -19.5173 -33.3406 -66.3638 17.8477 -116.593 7.67001 4.11366 -61.5361 -0.520931 0.0076783 5.1633 -3.15772 11.352 41.0608 -81.1721 -2.79126 116.471 -0.68696 -0.338159 17.0733 -0.121779 0.0138098 3.94159 -2.08556 8.53138 105.233 -10.5285 69.5513 -3.81118 7.54608 -9.28975 -1.18146 -2.71799 1.93397 8.20451 -0.807983 -5.75244 84.4753 9.08951 72.9995 -9.12472 -6.14689 -7.95853 1.1369 1.676 -24.6229 -24.0161 
-40.8508 80.092 -59.3398 59.0175 -28.3081 -15.7539 -70.1915 0 88.8779 158.911 53.2361 -69.1854 -10.4383 26.2739 5.18354 -142.112 32.008 172.491 -167.155 71.979 -159.256 -1.28896 -20.3895 -33.8238 -66.7906 13.8262 -121.454 6.96222 4.08503 -59.3686 -0.507786 0.0105936 5.37956 -3.08177 11.4473 40.1577 -82.3564 -2.01356 116.675 -1.19099 0.62348 16.687 -0.118882 0.0131378 3.86365 1.61938 9.82477 105.156 -15.821 75.0066 0.497068 7.50564 -11.2093 -1.20618 -2.72172 1.55345 9.12556 2.28778 -5.69901 86.3421 10.0197 73.1123 -7.24777 -3.67636 -5.24122 0.861788 2.12166 -20.0452 -23.1235 
-40.2158 77.6104 -57.7395 60.1717 -26.7811 -15.3117 -70.1915 0 88.8779 159.248 51.1685 -70.0551 -9.91496 26.1189 5.09585 -142.088 32.2659 171.798 -167.364 72.3157 -158.65 -1.36648 -20.8529 -33.4962 -67.0381 9.19612 -126.661 4.06357 2.6761 -56.5756 -0.279977 0.0159382 5.47565 -3.10541 11.5608 39.9839 -82.7416 -0.721442 117.486 -1.61605 2.74318 16.4137 -0.266925 0.00806694 4.00986 3.92165 10.814 105.868 -28.418 80.566 12.2683 8.59464 -12.1195 -1.24298 -1.79059 -0.531623 10.2034 4.14545 -6.61027 87.3643 16.3895 79.3298 -16.6684 -3.81798 -10.4593 1.10876 2.37981 -10.1064 -15.5843 
-39.8169 74.8903 -56.306 61.5058 -24.571 -14.538 -70.1915 0 88.8779 159.76 48.7648 -70.7338 -10.3569 25.5897 5.24056 -141.063 32.5994 169.975 -166.996 72.888 -158.45 -1.53843 -21.544 -33.4846 -67.6611 4.62652 -131.798 2.20918 1.71817 -52.6321 -0.107575 0.019963 5.13006 -3.17978 11.4465 40.7911 -83.5679 1.20686 117.226 -1.95424 4.64053 16.8859 -0.779794 -0.0110341 3.69166 6.30043 10.8141 105.759 -63.9909 84.5793 47.3133 7.15243 -15.6452 -1.27191 -2.92782 1.31019 10.6211 6.69144 -8.72758 87.1042 35.0305 85.4463 -43.4272 -4.72692 -14.2292 1.28593 0.972573 -7.88151 -0.285395 
-39.467 72.2409 -55.0891 62.0557 -24.1163 -14.0751 -70.1915 0 88.8779 161.451 46.0283 -71.514 -10.5241 25.8422 4.29505 -141.176 32.7605 169.218 -167.226 73.1361 -158.091 -1.63514 -21.9381 -33.4011 -69.2274 1.43939 -136.85 1.69056 1.53662 -48.7153 -0.0611345 0.0205309 4.8725 -3.30091 11.7231 41.0406 -84.6545 2.61764 117.486 -2.77005 7.91236 17.6187 -1.32745 -0.0292938 3.50811 9.14908 12.4404 105.056 -123.175 83.5843 104.606 8.58478 -14.5058 -1.25319 -0.713099 -3.23038 12.7739 9.34349 -7.90444 87.5963 120.949 85.6869 -122.147 -6.11649 -16.752 1.35735 3.14418 -8.75433 -24.2404 
-38.9078 69.4709 -53.8016 63.2275 -22.9701 -13.4929 -70.1915 0 88.8779 161.976 43.7469 -71.5899 -10.4928 25.5553 3.67347 -141.044 32.7418 168.588 -167.348 73.1999 -157.95 -1.76748 -22.5475 -33.2752 -69.951 -1.56456 -140.857 0.233728 0.33355 -44.6237 0.0603883 0.0240963 4.76184 -3.39133 11.8824 41.3871 -86.673 2.95574 118.046 -2.95899 7.94584 17.0688 -1.49507 -0.034145 3.40321 11.4179 13.319 104.489 -148.197 78.9506 128.641 6.75673 -17.2406 -1.3093 -1.5031 -2.00044 13.0287 10.9711 -8.57791 87.9071 156.428 81.4796 -164.42 -5.69832 -21.2717 1.50019 2.07299 -6.5273 -12.2125 
-38.4542 66.778 -52.6534 63.9448 -22.3428 -13.6377 -70.1915 0 88.8779 162.116 42.1052 -72.0798 -10.5687 25.2298 3.46754 -141.468 32.9 168.686 -167.393 73.3263 -158.283 -1.89846 -23.0203 -33.4086 -70.3541 -4.02009 -143.982 -1.75848 -1.86114 -40.9405 0.2471 0.0288132 4.83301 -3.36703 12.0157 40.9521 -87.999 2.1113 118.781 -4.11846 11.1141 17.597 -1.61481 -0.0321198 2.92042 13.3965 14.8681 104.676 -156.632 74.2952 136.259 5.50926 -17.6002 -1.35107 0.256098 -4.85656 12.8651 13.2495 -8.16586 88.9714 163.402 76.1017 -169.489 -6.77214 -23.1955 1.47536 2.80807 -8.76667 -20.3568 
-38.1178 64.2515 -51.5814 64.7767 -21.6536 -13.4646 -70.1915 0 88.8779 162.182 40.5348 -72.4271 -10.928 24.8671 3.7449 -140.219 32.8658 168.515 -166.982 73.3619 -157.97 -2.09221 -23.4679 -34.0683 -70.4247 -6.98705 -146.355 -3.62996 -4.50696 -37.392 0.338815 0.030592 4.73719 -3.46339 12.401 40.8502 -90.1502 1.03061 119.284 -4.45533 11.2785 17.1904 -1.58911 -0.0282103 2.57218 15.5233 16.1974 104.301 -160.919 69.8765 140.634 5.66602 -18.4549 -1.37348 0.530013 -5.08917 12.0378 15.0636 -8.48012 89.1873 167.02 71.4812 -174.522 -7.33711 -25.4466 1.46586 2.73786 -9.53603 -20.01 
-37.9094 62.1135 -50.3928 66.1617 -21.9521 -12.7539 -70.1915 0 88.8779 162.852 38.0861 -73.9786 -11.7064 24.7542 4.57761 -140.364 32.8764 168.67 -169.088 73.3199 -156.75 -2.24045 -23.882 -34.4096 -70.6748 -7.84737 -148.116 -5.20233 -7.12316 -35.0275 0.0934903 0.0245209 4.81758 -3.42999 12.3637 40.6898 -91.8022 -0.234063 120.108 -4.70328 11.6961 17.2733 -1.50971 -0.0255925 2.16354 16.6468 17.7211 102.586 -163.149 65.8255 141 4.35543 -18.6851 -1.42966 1.6999 -7.31705 13.3198 15.5009 -7.63159 88.6513 168.798 67.7005 -177.337 -8.29609 -27.0554 1.38089 2.77339 -10.2922 -21.0474 
-37.6813 60.058 -49.6713 66.597 -22.1901 -12.9299 -70.1915 0 88.8779 162.892 37.0258 -74.5819 -11.3383 24.7044 4.45695 -140.225 32.8631 168.146 -167.083 73.4009 -159.252 -2.34345 -24.1363 -34.6883 -70.9643 -8.88736 -149.707 -6.33799 -9.40224 -33.0153 -0.360757 0.0123139 4.85845 -3.49611 12.433 41.0061 -92.7635 -0.2901 121.01 -5.27876 14.0429 17.6875 -1.7198 -0.0239849 1.82528 18.6268 18.7492 101.402 -164.663 62.3268 142.222 4.55844 -19.0323 -1.43651 1.7273 -7.33679 13.2073 17.1081 -7.56892 88.5235 169.881 64.2033 -179.133 -8.67527 -28.4406 1.34109 2.72 -10.7197 -20.6568 
-37.4179 58.292 -49.1137 67.6151 -22.0772 -12.8267 -70.1915 0 88.8779 162.918 35.4836 -74.7409 -11.105 24.368 4.16296 -140.171 32.7228 168.334 -167.446 73.2394 -158.848 -2.58679 -24.63 -35.5378 -71.6376 -8.8918 -149.736 -6.27015 -9.3356 -32.2622 -0.627186 0.0047131 5.04343 -3.52784 12.496 41.0728 -92.9712 -0.348112 121.598 -5.63128 15.5627 18.1785 -1.88142 -0.0230435 1.50034 19.822 19.0399 100.558 -165.725 59.2967 143.532 4.25781 -18.8055 -1.43864 2.39673 -8.29153 12.5802 17.9514 -8.06014 88.6276 170.487 61.0328 -179.688 -9.1031 -29.6756 1.28442 2.75181 -11.1145 -21.4974 
-37.2018 56.5503 -48.3547 67.8902 -22.5327 -13.4442 -70.1915 0 88.8779 162.321 34.6223 -75.6978 -11.4476 24.4538 4.39563 -139.58 32.4945 168.307 -167.395 73.0428 -158.608 -2.63969 -24.7074 -35.7712 -71.3389 -9.88634 -149.691 -7.61936 -11.1588 -32.038 -0.694333 0.00253683 5.14231 -3.58192 12.5301 41.3933 -92.1495 -0.218129 121.914 -6.31858 17.7821 19.1098 -1.92747 -0.0221833 1.36168 21.3246 20.138 99.5299 -166.387 56.2961 142.514 3.81927 -19.1076 -1.47015 2.64921 -9.12501 14.8732 19.4022 -7.05987 88.8342 171.162 58.0734 178.625 -9.66181 -30.5167 1.20018 2.72754 -11.9327 -22.0128 
